Coordinates
version=1
nRows=18
nColumns=28
inDegrees=yes

Units are S.I. units (second, meters, Newtons, ...)
Angles are in degrees.

endheader
time	pelvis_tilt	pelvis_list	pelvis_rotation	pelvis_tx	pelvis_ty	pelvis_tz	hip_flexion_r	hip_adduction_r	hip_rotation_r	knee_angle_r	ankle_angle_r	subtalar_angle_r	mtp_angle_r	hip_flexion_l	hip_adduction_l	hip_rotation_l	knee_angle_l	socket_flexion	socket_adduction	socket_rotation	socket_tx	socket_ty	socket_tz	foot_flex	lumbar_extension	lumbar_bending	lumbar_rotation
      0.31666667	      1.07892455	      7.10283501	      4.55578436	     -0.46806253	      1.03648751	      0.27216210	     14.90010392	    -11.29813962	     -8.15438301	    -66.21177773	     10.78847569	    -10.24090460	      0.94050015	      7.54038989	     13.08530199	      9.91696519	    -12.34141251	      0.00000000	      0.00000000	      0.00000000	      0.00000000	     -0.00624227	      0.00000000	      0.81295406	    -13.63791581	     -9.38000925	     -5.68545324
      0.32083333	      1.12427992	      7.02685502	      4.66796354	     -0.46242557	      1.03717843	      0.27215587	     15.32281596	    -11.22231036	     -8.12044508	    -65.75330679	     11.15214705	    -10.03808909	      0.97196019	      7.00103399	     12.96522222	     10.22985963	    -12.10204705	      0.00000000	      0.00000000	      0.00000000	      0.00000000	     -0.00616525	      0.00000000	      1.02051360	    -13.60472711	     -9.29141125	     -5.80140050
      0.32500000	      1.47116336	      6.73348428	      5.11325068	     -0.45710881	      1.03823622	      0.27132227	     15.25442466	    -11.10082648	     -8.68369053	    -65.14449351	     12.02732942	     -8.90903673	      0.72627940	      6.21231171	     12.66427969	     10.77758804	    -12.02495672	      0.00000000	      0.00000000	      0.00000000	      0.00000000	     -0.00648032	      0.00000000	      1.07342377	    -14.03552829	     -8.73598101	     -6.41885053
      0.32916667	      1.50259858	      6.73337267	      5.19788159	     -0.45209890	      1.03872338	      0.27128136	     15.79781595	    -11.16563223	     -8.67813784	    -64.75215536	     12.10320425	     -8.90772849	      0.72774033	      5.85945835	     12.63459309	     10.81066964	    -12.01312620	      0.00000000	      0.00000000	      0.00000000	      0.00000000	     -0.00631355	      0.00000000	      1.13899471	    -14.15280297	     -8.70532867	     -6.42957713
      0.33333333	      1.64653020	      6.45077528	      5.43777668	     -0.44639276	      1.03948278	      0.27100311	     15.95474399	    -10.88514720	     -8.85811133	    -64.04225237	     12.85151495	     -8.46428087	      0.61419141	      5.22217506	     12.29424133	     11.23321950	    -11.79419791	      0.00000000	      0.00000000	      0.00000000	      0.00000000	     -0.00659591	      0.00000000	      1.30679608	    -14.22253969	     -8.29983511	     -6.69022087
      0.33750000	      1.67530149	      6.45678916	      5.51150782	     -0.44140890	      1.03986969	      0.27099404	     16.48687965	    -10.96008025	     -8.86432689	    -63.59662216	     12.91746860	     -8.45646613	      0.61019393	      4.87427101	     12.26672274	     11.26727242	    -11.78489002	      0.00000000	      0.00000000	      0.00000000	      0.00000000	     -0.00649729	      0.00000000	      1.36935330	    -14.33897643	     -8.27338090	     -6.70366877
      0.34166667	      1.84965944	      6.16972169	      5.81163367	     -0.43572717	      1.04069415	      0.27063586	     16.53930453	    -10.70212835	     -9.15540835	    -62.74983784	     13.58248877	     -8.04425548	      0.45168497	      4.21476898	     11.91597516	     11.73289823	    -11.58350781	      0.00000000	      0.00000000	      0.00000000	      0.00000000	     -0.00670238	      0.00000000	      1.50930205	    -14.44021310	     -7.85655762	     -7.00187015
      0.34583333	      1.86940816	      6.18696441	      5.88074279	     -0.43073484	      1.04100577	      0.27064633	     17.04991197	    -10.78906565	     -9.15927338	    -62.24096224	     13.64765759	     -8.03903579	      0.44074875	      3.86875341	     11.89723073	     11.77165390	    -11.55517016	      0.00000000	      0.00000000	      0.00000000	      0.00000000	     -0.00662391	      0.00000000	      1.58844961	    -14.55127842	     -7.83197376	     -7.01969712
      0.35000000	      2.08593515	      5.90306872	      6.21850953	     -0.42509777	      1.04185808	      0.27025998	     17.00307490	    -10.54218924	     -9.51511810	    -61.27667757	     14.22969249	     -7.77409272	      0.18678769	      3.17993653	     11.53607041	     12.25438771	    -11.37778350	      0.00000000	      0.00000000	      0.00000000	      0.00000000	     -0.00681416	      0.00000000	      1.73083778	    -14.68842580	     -7.41908240	     -7.36184941
      0.35416667	      2.12051069	      5.91988090	      6.30770160	     -0.41979505	      1.04223574	      0.27026499	     17.37908336	    -10.60897660	     -9.53902439	    -60.58378539	     14.34303359	     -7.76373410	      0.11617597	      2.75732004	     11.50328327	     12.36492675	    -11.27804980	      0.00000000	      0.00000000	      0.00000000	      0.00000000	     -0.00662794	      0.00000000	      1.87156306	    -14.73095370	     -7.41660487	     -7.42859571
      0.35833333	      2.14349692	      5.91510684	      6.41886470	     -0.41448478	      1.04263989	      0.27032275	     17.72572443	    -10.63162635	     -9.57875315	    -59.80167576	     14.52720923	     -7.77063406	      0.06735248	      2.35078402	     11.44157657	     12.48865143	    -11.19099935	      0.00000000	      0.00000000	      0.00000000	      0.00000000	     -0.00645574	      0.00000000	      1.99623561	    -14.74918350	     -7.39483703	     -7.49115364
      0.36250000	      2.66400927	      5.58146669	      6.88167033	     -0.40935087	      1.04373077	      0.26966653	     17.31142262	    -10.40152658	    -10.23671821	    -58.76371943	     14.96533356	     -7.67778590	     -0.88769714	      1.40301713	     10.99381158	     13.08722560	    -11.08167238	      0.00000000	      0.00000000	      0.00000000	      0.00000000	     -0.00685613	      0.00000000	      2.08249429	    -15.35682666	     -6.77947863	     -8.13464597
      0.36666667	      2.64956344	      5.62747941	      6.94393609	     -0.40410675	      1.04397792	      0.26974961	     17.70579906	    -10.48567868	    -10.22746687	    -57.96244093	     15.13427990	     -7.71798458	     -0.92364261	      1.05231631	     10.98992433	     13.14334897	    -11.00891273	      0.00000000	      0.00000000	      0.00000000	      0.00000000	     -0.00662770	      0.00000000	      2.21183949	    -15.34231637	     -6.81922901	     -8.13898122
      0.37083333	      2.63432726	      5.63810025	      7.02396190	     -0.39881452	      1.04418018	      0.26984551	     18.05972193	    -10.53092638	    -10.26671213	    -57.09458389	     15.34254033	     -7.78674094	     -0.96853708	      0.69555541	     10.94334916	     13.23736618	    -10.92916100	      0.00000000	      0.00000000	      0.00000000	      0.00000000	     -0.00651068	      0.00000000	      2.33929156	    -15.31979931	     -6.83844468	     -8.15632768
      0.37500000	      2.63118606	      5.59287850	      7.15984095	     -0.39357036	      1.04436692	      0.26981621	     18.36420612	    -10.52720531	    -10.37771166	    -56.17966860	     15.58910142	     -7.90863376	     -1.05284225	      0.32719448	     10.83796194	     13.38389422	    -10.83684451	      0.00000000	      0.00000000	      0.00000000	      0.00000000	     -0.00646855	      0.00000000	      2.46480856	    -15.32581618	     -6.77234821	     -8.19573550
      0.37916667	      2.63395278	      5.55753669	      7.29294661	     -0.38832623	      1.04454696	      0.26981523	     18.64262783	    -10.53604311	    -10.49313680	    -55.20905435	     15.78799965	     -8.03840449	     -1.14590664	     -0.03405966	     10.73983572	     13.52074600	    -10.77528088	      0.00000000	      0.00000000	      0.00000000	      0.00000000	     -0.00643557	      0.00000000	      2.58586296	    -15.32882414	     -6.71495234	     -8.24913983
      0.38333333	      3.05546910	      5.21106877	      7.68100813	     -0.38333861	      1.04537390	      0.26938617	     18.32247675	    -10.22382014	    -11.06185599	    -54.07412484	     17.06161772	     -8.19002090	     -6.54319097	     -0.82927627	     10.25376191	     14.04376483	    -10.69641771	      0.00000000	      0.00000000	      0.00000000	      0.00000000	     -0.00683351	      0.00000000	      2.69483011	    -15.81810936	     -6.10504327	     -8.73838724
      0.38750000	      3.00883442	      5.27544182	      7.73394208	     -0.37815199	      1.04540417	      0.26950382	     18.66723399	    -10.33079535	    -11.09562538	    -53.09289251	     17.19695861	     -8.25829384	     -6.54459167	     -1.12693906	     10.26831855	     14.06655160	    -10.65671608	      0.00000000	      0.00000000	      0.00000000	      0.00000000	     -0.00666533	      0.00000000	      2.81052989	    -15.79341515	     -6.18346207	     -8.74687452
